<svg 
 xmlns="http://www.w3.org/2000/svg"
 xmlns:xlink="http://www.w3.org/1999/xlink"
 width="650px" height="244px">
<path fill-rule="evenodd"  opacity="0.122" fill="rgb(12, 184, 182)"
 d="M626.096,41.270 L626.053,81.511 L648.918,94.799 L648.912,99.686 L621.838,83.949 L621.886,38.823 L648.994,23.144 L648.989,28.030 L626.096,41.270 ZM618.500,29.106 L610.547,24.483 L610.557,15.254 L618.520,10.648 L626.475,15.271 L626.465,24.501 L618.500,29.106 ZM618.519,11.647 L611.418,15.755 L611.409,23.985 L618.501,28.107 L625.604,24.000 L625.612,15.769 L618.519,11.647 ZM558.425,84.164 L524.205,64.274 L524.231,39.829 L517.983,43.444 L500.510,33.288 L500.500,42.246 L476.706,56.010 L452.939,42.195 L452.968,14.615 L476.765,0.853 L500.408,14.595 L500.410,12.799 L518.026,2.607 L535.619,12.837 L535.613,17.992 L558.510,4.749 L592.731,24.639 L592.689,64.347 L558.425,84.164 ZM476.764,1.598 L453.611,14.989 L453.583,41.823 L476.707,55.264 L499.857,41.874 L499.885,15.040 L476.764,1.598 ZM518.026,3.158 L500.886,13.076 L500.864,32.942 L517.984,42.891 L524.232,39.278 L524.248,24.567 L535.136,18.268 L535.142,13.113 L518.026,3.158 ZM525.159,38.741 L535.121,32.979 L535.135,19.343 L525.174,25.104 L525.159,38.741 ZM558.509,5.823 L535.612,19.066 L535.597,33.254 L525.159,39.293 L525.133,63.737 L558.426,83.091 L591.763,63.810 L591.804,25.176 L558.509,5.823 ZM565.811,15.084 L564.017,14.039 L564.019,11.957 L565.816,10.917 L567.610,11.961 L567.608,14.043 L565.811,15.084 ZM565.815,11.144 L564.213,12.070 L564.212,13.927 L565.812,14.857 L567.414,13.930 L567.416,12.074 L565.815,11.144 ZM520.102,105.649 L520.087,119.442 L508.183,126.326 L496.296,119.417 L496.311,105.623 L508.212,98.739 L520.102,105.649 ZM497.598,106.371 L497.584,118.671 L508.184,124.832 L518.800,118.694 L518.814,106.394 L508.211,100.233 L497.598,106.371 ZM504.624,80.296 L504.615,88.967 L497.133,93.297 L489.659,88.950 L489.667,80.701 L489.186,80.980 L484.854,78.462 L484.860,73.437 L489.197,70.927 L493.528,73.446 L493.522,78.049 L497.151,75.952 L504.624,80.296 ZM489.197,71.064 L484.977,73.504 L484.971,78.395 L489.186,80.844 L489.667,80.565 L489.668,80.279 L493.406,78.117 L493.410,73.513 L489.197,71.064 ZM490.477,80.749 L490.468,88.482 L497.134,92.357 L503.806,88.497 L503.814,80.765 L497.150,76.890 L490.477,80.749 ZM508.193,146.048 L520.529,138.912 L533.653,146.541 L533.678,122.669 L566.334,103.781 L563.719,102.264 L563.723,98.530 L566.945,96.668 L570.162,98.537 L570.159,101.569 L591.878,89.008 L650.001,122.794 L649.929,190.240 L591.734,223.901 L552.818,201.281 L520.443,220.007 L503.931,210.409 L449.931,241.642 L391.804,207.857 L391.819,193.170 L377.078,184.601 L377.063,198.915 L325.853,228.534 L274.707,198.804 L274.755,154.040 L260.734,145.890 L260.756,124.815 L239.293,112.341 L239.279,125.730 L215.368,139.561 L238.566,153.045 L238.525,191.093 L205.695,210.089 L172.904,191.022 L172.944,152.974 L194.123,140.726 L168.192,125.654 L168.236,84.432 L203.804,63.862 L239.140,84.402 L239.143,81.717 L247.333,76.978 L247.351,60.357 L273.604,45.173 L299.829,60.414 L299.801,86.107 L331.682,104.640 L331.685,101.954 L343.375,95.191 L340.403,93.463 L340.431,67.050 L345.228,64.274 L344.168,63.659 L344.210,25.042 L377.531,5.768 L410.814,25.113 L410.801,37.334 L416.167,34.231 L438.106,46.983 L438.078,72.439 L421.622,81.961 L427.560,85.412 L427.550,95.170 L448.771,107.504 L450.075,106.750 L508.199,140.536 L508.193,146.048 ZM176.494,155.037 L176.457,188.966 L205.699,205.970 L234.975,189.030 L235.011,155.100 L211.814,141.617 L203.715,146.301 L197.673,142.789 L176.494,155.037 ZM210.852,141.057 L205.771,138.104 L198.635,142.231 L203.717,145.185 L210.852,141.057 ZM203.803,64.977 L169.197,84.991 L169.155,125.097 L195.085,140.169 L205.776,133.986 L214.406,139.002 L238.317,125.171 L238.360,85.065 L203.803,64.977 ZM501.835,204.324 L501.892,151.231 L486.871,159.921 L486.829,198.926 L498.968,205.983 L501.835,204.324 ZM375.740,140.369 L373.235,138.914 L368.674,141.551 L368.635,178.086 L375.696,182.191 L375.740,140.369 ZM373.910,137.698 L383.564,132.114 L383.586,111.734 L368.697,120.346 L368.681,134.659 L373.910,137.698 ZM368.680,136.266 L368.675,140.726 L372.524,138.500 L368.680,136.266 ZM247.319,90.787 L247.333,77.804 L239.854,82.131 L239.823,111.822 L260.757,123.991 L260.778,104.670 L266.003,101.648 L247.319,90.787 ZM273.539,106.028 L266.964,102.207 L261.739,105.228 L261.719,124.549 L265.408,126.694 L291.022,111.877 L291.039,95.908 L273.539,106.028 ZM291.040,95.083 L291.047,88.277 L267.675,101.794 L273.540,105.204 L291.040,95.083 ZM248.029,90.375 L266.714,101.236 L291.048,87.162 L291.054,82.186 L265.472,67.309 L248.043,77.394 L248.029,90.375 ZM273.603,45.996 L248.061,60.770 L248.044,76.567 L265.473,66.482 L291.766,81.774 L291.761,86.750 L296.345,84.098 L299.092,85.695 L299.118,60.824 L273.603,45.996 ZM291.752,94.672 L299.087,90.430 L299.091,86.810 L296.344,85.214 L291.760,87.865 L291.752,94.672 ZM299.800,87.222 L299.796,90.842 L291.751,95.495 L291.733,112.290 L265.408,127.519 L261.718,125.374 L261.697,145.333 L274.756,152.924 L274.770,139.458 L325.980,109.838 L330.894,112.694 L330.902,105.303 L299.800,87.222 ZM276.140,153.729 L296.258,165.422 L330.859,145.407 L330.892,114.301 L325.978,111.444 L276.155,140.262 L276.140,153.729 ZM331.821,145.967 L296.258,166.537 L276.139,154.845 L276.093,198.004 L325.855,226.927 L375.679,198.111 L375.694,183.797 L367.249,178.888 L367.288,142.354 L357.949,147.756 L331.835,132.576 L331.821,145.967 ZM332.365,132.058 L357.951,146.930 L367.289,141.528 L367.295,135.461 L332.383,115.168 L332.365,132.058 ZM332.396,102.367 L332.384,113.561 L367.297,133.854 L367.313,119.542 L383.587,110.127 L383.595,102.422 L377.092,98.641 L363.169,106.696 L344.086,95.604 L332.396,102.367 ZM377.805,98.228 L384.308,102.010 L384.300,109.715 L403.755,98.463 L403.769,85.387 L410.161,81.689 L394.982,72.863 L385.972,78.074 L385.956,93.512 L377.805,98.228 ZM385.367,67.454 L363.226,54.576 L349.450,62.546 L377.453,78.824 L385.360,74.250 L385.367,67.454 ZM376.477,98.283 L358.014,87.546 L344.703,95.248 L363.171,105.981 L376.477,98.283 ZM341.047,67.407 L341.019,93.107 L343.991,94.834 L358.015,86.720 L377.189,97.870 L385.340,93.154 L385.356,78.431 L377.448,83.004 L345.843,64.632 L341.047,67.407 ZM377.527,9.948 L347.812,27.136 L347.775,61.572 L348.834,62.187 L363.226,53.861 L385.984,67.098 L385.977,73.893 L394.177,69.151 L394.200,46.935 L407.194,39.421 L407.207,27.199 L377.527,9.948 ZM396.555,67.775 L407.170,61.636 L407.191,42.177 L396.575,48.316 L396.555,67.775 ZM435.704,71.059 L435.728,48.358 L416.164,36.987 L410.798,40.091 L410.773,63.731 L397.360,71.488 L412.539,80.314 L415.670,78.503 L419.247,80.581 L435.704,71.059 ZM413.826,81.062 L416.115,82.393 L417.959,81.326 L415.668,79.996 L413.826,81.062 ZM420.334,82.706 L416.112,85.149 L411.447,82.438 L405.056,86.134 L405.043,97.717 L418.522,89.922 L426.263,94.421 L426.272,86.157 L420.334,82.706 ZM405.808,98.880 L415.643,104.596 L426.259,98.458 L426.261,96.027 L418.520,91.527 L405.808,98.880 ZM427.548,96.775 L427.546,99.205 L415.641,106.089 L404.520,99.626 L384.298,111.321 L384.275,132.527 L374.621,138.111 L377.126,139.567 L377.080,182.995 L391.821,191.563 L391.876,140.410 L447.385,108.306 L427.548,96.775 ZM450.067,114.051 L398.168,144.068 L398.113,195.221 L418.397,207.011 L468.221,178.193 L468.277,124.637 L450.067,114.051 ZM469.662,125.442 L469.604,178.998 L418.395,208.617 L398.112,196.826 L398.104,204.213 L449.939,234.341 L497.639,206.751 L485.500,199.696 L485.544,159.150 L501.893,149.692 L501.899,144.179 L469.662,125.442 ZM566.945,96.768 L563.810,98.580 L563.806,102.214 L566.421,103.731 L570.072,101.620 L570.075,98.588 L566.945,96.768 ZM583.018,101.429 L583.010,108.718 L589.676,112.595 L596.348,108.734 L596.356,101.000 L590.074,97.348 L583.018,101.429 ZM591.741,216.598 L643.637,186.582 L643.701,126.438 L591.870,96.310 L590.884,96.880 L597.166,100.532 L597.157,109.203 L589.675,113.533 L582.200,109.187 L582.208,101.897 L539.971,126.326 L539.945,150.198 L555.473,159.224 L555.434,195.494 L591.741,216.598 ZM554.106,194.723 L554.143,159.993 L539.943,151.739 L539.906,186.469 L554.106,194.723 ZM508.127,207.983 L505.260,209.640 L520.444,218.467 L551.490,200.510 L533.606,190.114 L533.651,148.081 L520.527,140.453 L508.191,147.588 L508.127,207.983 ZM429.441,99.142 L432.123,100.700 L432.119,103.813 L429.434,105.368 L426.752,103.807 L426.756,100.694 L429.441,99.142 ZM429.434,105.030 L431.829,103.644 L431.832,100.869 L429.441,99.479 L427.046,100.864 L427.043,103.639 L429.434,105.030 ZM222.116,111.417 L218.247,109.168 L218.251,104.680 L222.126,102.437 L225.995,104.688 L225.991,109.178 L222.116,111.417 ZM222.126,102.924 L218.670,104.922 L218.666,108.927 L222.117,110.931 L225.572,108.934 L225.576,104.929 L222.126,102.924 ZM222.385,168.597 L228.857,172.360 L228.848,179.872 L222.369,183.620 L215.894,179.858 L215.902,172.346 L222.385,168.597 ZM222.369,183.416 L228.674,179.769 L228.681,172.461 L222.385,168.801 L216.077,172.447 L216.069,179.756 L222.369,183.416 ZM444.182,83.622 L442.400,82.586 L442.402,80.519 L444.187,79.486 L445.967,80.523 L445.965,82.590 L444.182,83.622 ZM427.100,19.131 L424.511,17.627 L424.515,14.622 L427.106,13.123 L429.696,14.627 L429.692,17.632 L427.100,19.131 ZM427.106,13.448 L424.795,14.785 L424.793,17.464 L427.100,18.806 L429.413,17.469 L429.415,14.790 L427.106,13.448 ZM358.906,7.778 L355.551,5.826 L355.555,1.933 L358.914,-0.010 L362.269,1.940 L362.265,5.833 L358.906,7.778 ZM336.892,85.130 L334.210,83.571 L334.213,80.459 L336.898,78.906 L339.580,80.465 L339.577,83.577 L336.892,85.130 ZM336.898,79.243 L334.504,80.627 L334.501,83.404 L336.893,84.794 L339.287,83.408 L339.290,80.632 L336.898,79.243 ZM320.437,38.118 L316.285,35.702 L316.290,30.882 L320.448,28.478 L324.603,30.891 L324.597,35.711 L320.437,38.118 ZM320.447,28.607 L316.403,30.948 L316.398,35.637 L320.437,37.987 L324.485,35.646 L324.490,30.956 L320.447,28.607 ZM320.286,83.479 L320.282,86.843 L317.380,88.520 L314.481,86.836 L314.485,83.473 L317.387,81.794 L320.286,83.479 ZM314.560,86.790 L317.380,88.429 L320.204,86.797 L320.207,83.524 L317.387,81.884 L314.563,83.518 L314.560,86.790 ZM284.615,20.301 L279.560,17.362 L279.566,11.499 L284.627,8.573 L289.680,11.510 L289.674,17.373 L284.615,20.301 ZM284.627,9.207 L280.114,11.818 L280.108,17.045 L284.615,19.666 L289.127,17.055 L289.132,11.827 L284.627,9.207 ZM248.202,39.905 L238.757,34.415 L238.769,23.456 L248.225,17.987 L257.671,23.476 L257.659,34.434 L248.202,39.905 ZM248.224,19.172 L239.792,24.052 L239.781,33.822 L248.203,38.719 L256.637,33.841 L256.647,24.069 L248.224,19.172 ZM235.940,79.903 L233.874,78.702 L233.876,76.303 L235.946,75.107 L238.013,76.309 L238.011,78.707 L235.940,79.903 ZM235.946,75.172 L233.933,76.336 L233.930,78.670 L235.940,79.839 L237.955,78.675 L237.957,76.341 L235.946,75.172 ZM126.566,242.292 L92.538,222.514 L92.580,183.036 L97.016,180.469 L80.362,170.786 L80.402,132.738 L113.234,113.749 L146.024,132.808 L145.983,170.856 L142.783,172.708 L160.665,183.109 L160.623,222.588 L126.566,242.292 ZM113.230,117.868 L83.952,134.801 L83.915,168.729 L100.570,178.414 L126.651,163.325 L139.234,170.644 L142.433,168.794 L142.470,134.864 L113.230,117.868 ZM101.490,178.950 L113.157,185.733 L138.313,171.177 L126.650,164.394 L101.490,178.950 ZM141.861,173.241 L113.153,189.853 L97.937,181.006 L93.501,183.570 L93.461,221.981 L126.567,241.224 L159.702,222.053 L159.743,183.642 L141.861,173.241 ZM155.105,187.570 L152.440,186.021 L152.444,182.930 L155.111,181.387 L157.773,182.936 L157.770,186.026 L155.105,187.570 ZM146.419,118.365 L141.405,115.449 L141.412,109.629 L146.432,106.726 L151.448,109.640 L151.441,115.460 L146.419,118.365 ZM129.575,91.180 L125.705,88.932 L125.710,84.442 L129.584,82.202 L133.454,84.450 L133.449,88.940 L129.575,91.180 ZM129.584,82.688 L126.129,84.685 L126.125,88.690 L129.575,90.694 L133.030,88.698 L133.034,84.694 L129.584,82.688 ZM67.324,103.435 L62.310,100.519 L62.316,94.700 L67.336,91.796 L72.352,94.710 L72.346,100.530 L67.324,103.435 ZM68.923,128.993 L68.915,136.198 L62.698,139.795 L56.492,136.185 L56.499,128.980 L62.713,125.384 L68.923,128.993 ZM56.660,136.087 L62.698,139.599 L68.747,136.100 L68.755,129.090 L62.713,125.580 L56.667,129.078 L56.660,136.087 ZM68.081,202.352 L60.752,206.592 L62.471,207.591 L62.465,212.618 L58.128,215.128 L53.795,212.610 L53.797,210.616 L34.024,222.057 L-0.004,202.279 L0.039,162.798 L34.109,143.089 L68.123,162.873 L68.081,202.352 ZM58.128,214.991 L62.348,212.550 L62.354,207.659 L60.635,206.660 L53.914,210.548 L53.912,212.542 L58.128,214.991 ZM59.714,206.125 L58.139,205.209 L53.917,207.649 L53.915,209.480 L59.714,206.125 ZM34.108,144.158 L0.959,163.333 L0.919,201.745 L34.026,220.987 L53.798,209.546 L53.800,207.581 L58.139,205.073 L59.831,206.056 L67.160,201.816 L67.202,163.405 L34.108,144.158 ZM9.156,113.166 L1.602,108.774 L1.611,100.010 L9.175,95.637 L16.728,100.027 L16.718,108.790 L9.156,113.166 ZM9.175,96.585 L2.429,100.486 L2.420,108.300 L9.158,112.217 L15.900,108.314 L15.909,100.500 L9.175,96.585 ZM247.652,201.624 L250.315,203.172 L250.312,206.263 L247.646,207.805 L244.982,206.258 L244.986,203.167 L247.652,201.624 ZM314.927,228.988 L321.398,232.749 L321.390,240.261 L314.911,244.010 L308.436,240.248 L308.443,232.737 L314.927,228.988 ZM314.911,243.807 L321.215,240.160 L321.223,232.852 L314.927,229.191 L308.618,232.839 L308.611,240.146 L314.911,243.807 Z"/>
</svg>