<svg 
 xmlns="http://www.w3.org/2000/svg"
 xmlns:xlink="http://www.w3.org/1999/xlink"
 width="650px" height="244px">
<path fill-rule="evenodd"  opacity="0.122" fill="rgb(12, 184, 182)"
 d="M650.003,41.719 L649.961,81.199 L615.891,100.909 L581.876,81.126 L581.919,41.646 L589.248,37.405 L587.529,36.406 L587.535,31.379 L591.872,28.870 L596.205,31.388 L596.203,33.381 L615.976,21.941 L650.003,41.719 ZM591.872,29.006 L587.652,31.447 L587.646,36.339 L589.365,37.338 L596.086,33.449 L596.088,31.456 L591.872,29.006 ZM590.286,37.873 L591.861,38.789 L596.083,36.348 L596.085,34.519 L590.286,37.873 ZM596.202,34.451 L596.200,36.416 L591.861,38.926 L590.169,37.941 L582.840,42.182 L582.798,80.592 L615.892,99.839 L649.041,80.664 L649.081,42.253 L615.974,23.010 L596.202,34.451 ZM593.508,107.813 L593.501,115.017 L587.287,118.613 L581.077,115.004 L581.085,107.800 L587.302,104.204 L593.508,107.813 ZM581.245,114.907 L587.287,118.418 L593.333,114.919 L593.340,107.910 L587.302,104.398 L581.253,107.897 L581.245,114.907 ZM587.690,143.479 L587.684,149.299 L582.664,152.202 L577.648,149.287 L577.654,143.467 L582.676,140.562 L587.690,143.479 ZM569.597,111.260 L536.766,130.248 L503.976,111.189 L504.017,73.142 L507.217,71.289 L489.334,60.889 L489.377,21.409 L523.434,1.705 L557.462,21.483 L557.420,60.961 L552.984,63.528 L569.638,73.211 L569.597,111.260 ZM556.499,60.427 L556.539,22.016 L523.432,2.774 L490.298,21.944 L490.257,60.356 L508.139,70.756 L536.847,54.146 L552.063,62.993 L556.499,60.427 ZM511.687,72.820 L523.350,79.603 L548.510,65.048 L536.843,58.265 L511.687,72.820 ZM549.430,65.584 L523.349,80.673 L510.766,73.353 L507.567,75.204 L507.530,109.134 L536.770,126.130 L566.048,109.197 L566.085,75.268 L549.430,65.584 ZM494.889,62.610 L492.227,61.061 L492.230,57.971 L494.895,56.429 L497.560,57.977 L497.556,61.067 L494.889,62.610 ZM481.764,159.566 L446.196,180.137 L410.860,159.595 L410.857,162.281 L402.666,167.020 L402.649,183.641 L376.396,198.825 L350.171,183.583 L350.199,157.891 L318.318,139.358 L318.315,142.043 L306.625,148.808 L309.597,150.534 L309.569,176.949 L304.772,179.723 L305.832,180.339 L305.790,218.956 L272.469,238.229 L239.186,218.884 L239.199,206.663 L233.833,209.767 L211.894,197.015 L211.922,171.558 L228.377,162.036 L222.440,158.585 L222.450,148.828 L201.229,136.493 L199.925,137.248 L141.801,103.461 L141.807,97.949 L129.471,105.086 L116.347,97.457 L116.322,121.328 L83.666,140.217 L86.281,141.734 L86.277,145.467 L83.055,147.329 L79.838,145.460 L79.840,142.428 L58.122,154.989 L-0.001,121.205 L0.071,53.758 L58.266,20.097 L97.182,42.717 L129.557,23.991 L146.069,33.589 L200.069,2.355 L258.196,36.140 L258.181,50.828 L272.922,59.397 L272.937,45.082 L324.147,15.463 L375.293,45.193 L375.245,89.958 L389.266,98.107 L389.243,119.182 L410.707,131.657 L410.721,118.267 L434.632,104.437 L411.434,90.954 L411.475,52.904 L444.305,33.909 L477.096,52.976 L477.056,91.023 L455.877,103.273 L481.808,118.344 L481.764,159.566 ZM83.055,147.229 L86.190,145.417 L86.194,141.784 L83.579,140.267 L79.928,142.379 L79.925,145.410 L83.055,147.229 ZM66.982,142.568 L66.989,135.279 L60.324,131.404 L53.652,135.265 L53.644,142.997 L59.926,146.649 L66.982,142.568 ZM58.259,27.400 L6.362,57.416 L6.299,117.560 L58.130,147.688 L59.116,147.117 L52.834,143.466 L52.843,134.794 L60.325,130.464 L67.800,134.811 L67.792,142.100 L110.029,117.672 L110.055,93.800 L94.527,84.774 L94.566,48.503 L58.259,27.400 ZM95.894,49.274 L95.856,84.005 L110.057,92.259 L110.094,57.528 L95.894,49.274 ZM129.556,25.532 L98.510,43.488 L116.394,53.883 L116.349,95.917 L129.473,103.545 L141.809,96.409 L141.873,36.015 L144.740,34.357 L129.556,25.532 ZM401.971,153.622 L383.286,142.762 L358.952,156.836 L358.946,161.811 L384.527,176.688 L401.957,166.604 L401.971,153.622 ZM376.461,137.969 L383.036,141.791 L388.261,138.770 L388.281,119.448 L384.591,117.304 L358.978,132.121 L358.961,148.091 L376.461,137.969 ZM358.960,148.914 L358.953,155.720 L382.325,142.203 L376.460,138.794 L358.960,148.914 ZM376.396,198.002 L401.939,183.228 L401.956,167.430 L384.527,177.515 L358.234,162.224 L358.239,157.247 L353.655,159.899 L350.908,158.304 L350.882,183.173 L376.396,198.002 ZM358.248,149.327 L350.913,153.568 L350.909,157.187 L353.656,158.785 L358.240,156.132 L358.248,149.327 ZM317.635,111.939 L292.049,97.067 L282.711,102.469 L282.705,108.536 L317.617,128.830 L317.635,111.939 ZM281.320,107.732 L281.325,103.271 L277.476,105.498 L281.320,107.732 ZM276.090,106.300 L266.436,111.884 L266.414,132.263 L281.303,123.653 L281.318,109.338 L276.090,106.300 ZM317.604,141.631 L317.616,130.437 L282.703,110.143 L282.687,124.457 L266.413,133.870 L266.404,141.575 L272.908,145.357 L286.831,137.302 L305.914,148.394 L317.604,141.631 ZM272.195,145.769 L265.692,141.988 L265.700,134.282 L246.245,145.535 L246.231,158.611 L239.839,162.308 L255.018,171.135 L264.028,165.924 L264.044,150.485 L272.195,145.769 ZM264.633,176.543 L286.774,189.421 L300.550,181.452 L272.547,165.175 L264.640,169.748 L264.633,176.543 ZM273.523,145.715 L291.986,156.452 L305.297,148.751 L286.829,138.016 L273.523,145.715 ZM308.953,176.591 L308.980,150.891 L306.009,149.164 L291.985,157.277 L272.811,146.127 L264.660,150.843 L264.644,165.567 L272.552,160.994 L304.157,179.366 L308.953,176.591 ZM272.473,234.050 L302.187,216.862 L302.225,182.426 L301.166,181.810 L286.774,190.136 L264.016,176.900 L264.023,170.104 L255.823,174.847 L255.800,197.063 L242.806,204.578 L242.793,216.798 L272.473,234.050 ZM253.445,176.222 L242.830,182.362 L242.809,201.822 L253.424,195.682 L253.445,176.222 ZM214.296,172.938 L214.272,195.640 L233.836,207.011 L239.202,203.908 L239.227,180.267 L252.640,172.510 L237.461,163.683 L234.330,165.496 L230.752,163.417 L214.296,172.938 ZM236.174,162.937 L233.885,161.604 L232.041,162.670 L234.331,164.002 L236.174,162.937 ZM229.666,161.291 L233.888,158.848 L238.552,161.560 L244.944,157.863 L244.957,146.280 L231.478,154.076 L223.737,149.576 L223.728,157.840 L229.666,161.291 ZM244.192,145.118 L234.357,139.401 L223.741,145.540 L223.738,147.970 L231.480,152.470 L244.192,145.118 ZM199.933,129.946 L251.832,99.929 L251.887,48.777 L231.603,36.987 L181.779,65.804 L181.723,119.360 L199.933,129.946 ZM148.165,39.673 L148.108,92.766 L163.129,84.077 L163.171,45.071 L151.032,38.015 L148.165,39.673 ZM200.061,9.656 L152.361,37.245 L164.500,44.301 L164.456,84.848 L148.106,94.305 L148.101,99.818 L180.338,118.556 L180.396,64.999 L231.605,35.380 L251.888,47.171 L251.896,39.784 L200.061,9.656 ZM272.874,104.431 L272.920,61.003 L258.179,52.434 L258.124,103.587 L202.615,135.691 L222.452,147.222 L222.454,144.792 L234.359,137.909 L245.480,144.372 L265.702,132.676 L265.724,111.471 L275.379,105.886 L272.874,104.431 ZM274.260,103.628 L276.765,105.084 L281.326,102.446 L281.365,65.912 L274.304,61.806 L274.260,103.628 ZM324.145,17.070 L274.321,45.887 L274.306,60.201 L282.751,65.110 L282.712,101.643 L292.050,96.241 L318.165,111.421 L318.179,98.031 L353.742,77.460 L373.861,89.154 L373.907,45.994 L324.145,17.070 ZM319.108,129.697 L324.022,132.553 L373.845,103.736 L373.860,90.270 L353.741,78.576 L319.141,98.589 L319.108,129.697 ZM375.244,91.074 L375.229,104.541 L324.020,134.159 L319.106,131.303 L319.098,138.695 L350.200,156.775 L350.204,153.156 L358.249,148.503 L358.267,131.707 L384.592,116.479 L388.282,118.623 L388.303,98.665 L375.244,91.074 ZM389.242,120.007 L389.222,139.329 L383.997,142.351 L402.681,153.212 L402.667,166.193 L410.145,161.866 L410.177,132.175 L389.242,120.007 ZM473.506,88.960 L473.542,55.031 L444.301,38.028 L415.025,54.968 L414.989,88.897 L438.186,102.382 L446.284,97.697 L452.327,101.209 L473.506,88.960 ZM439.147,102.940 L444.229,105.893 L451.365,101.766 L446.283,98.812 L439.147,102.940 ZM454.915,103.829 L444.224,110.012 L435.594,104.996 L411.683,118.826 L411.640,158.932 L446.197,179.020 L480.803,159.007 L480.845,118.901 L454.915,103.829 ZM427.874,141.560 L424.004,139.309 L424.009,134.820 L427.884,132.580 L431.753,134.829 L431.748,139.318 L427.874,141.560 ZM427.883,133.067 L424.428,135.063 L424.424,139.068 L427.874,141.074 L431.330,139.075 L431.334,135.070 L427.883,133.067 ZM427.615,75.401 L421.143,71.638 L421.151,64.127 L427.631,60.378 L434.106,64.140 L434.098,71.652 L427.615,75.401 ZM427.631,60.581 L421.326,64.228 L421.319,71.536 L427.615,75.196 L433.923,71.550 L433.931,64.241 L427.631,60.581 ZM220.559,144.855 L217.877,143.297 L217.881,140.184 L220.566,138.629 L223.248,140.191 L223.244,143.303 L220.559,144.855 ZM220.566,138.967 L218.171,140.353 L218.168,143.128 L220.559,144.518 L222.954,143.134 L222.957,140.358 L220.566,138.967 ZM402.347,42.374 L399.684,40.825 L399.688,37.735 L402.354,36.192 L405.018,37.740 L405.014,40.831 L402.347,42.374 ZM335.073,15.010 L328.602,11.248 L328.610,3.737 L335.088,-0.013 L341.564,3.750 L341.556,11.261 L335.073,15.010 ZM335.088,0.192 L328.785,3.838 L328.777,11.146 L335.073,14.806 L341.382,11.160 L341.389,3.852 L335.088,0.192 ZM23.904,202.727 L23.947,162.487 L1.082,149.198 L1.088,144.313 L28.162,160.049 L28.114,205.175 L1.006,220.853 L1.011,215.968 L23.904,202.727 ZM31.500,214.892 L39.453,219.514 L39.443,228.743 L31.480,233.350 L23.525,228.726 L23.535,219.497 L31.500,214.892 ZM31.481,232.350 L38.582,228.242 L38.591,220.013 L31.499,215.890 L24.396,219.998 L24.387,228.228 L31.481,232.350 ZM129.898,138.349 L129.913,124.555 L141.817,117.672 L153.704,124.580 L153.689,138.375 L141.788,145.258 L129.898,138.349 ZM152.402,137.627 L152.416,125.326 L141.816,119.165 L131.200,125.304 L131.186,137.604 L141.789,143.765 L152.402,137.627 ZM165.145,165.535 L165.140,170.561 L160.803,173.070 L156.472,170.552 L156.477,165.948 L152.849,168.047 L145.376,163.702 L145.385,155.032 L152.867,150.701 L160.341,155.048 L160.333,163.296 L160.814,163.017 L165.145,165.535 ZM152.866,151.640 L146.194,155.501 L146.186,163.234 L152.850,167.107 L159.523,163.248 L159.532,155.516 L152.866,151.640 ZM160.333,163.432 L160.332,163.718 L156.594,165.880 L156.590,170.484 L160.803,172.934 L165.023,170.493 L165.029,165.603 L160.814,163.153 L160.333,163.432 ZM91.575,159.833 L125.795,179.724 L125.768,204.168 L132.017,200.553 L149.490,210.709 L149.500,201.751 L173.294,187.987 L197.061,201.803 L197.032,229.382 L173.235,243.145 L149.592,229.402 L149.590,231.199 L131.974,241.391 L114.381,231.160 L114.386,226.006 L91.490,239.250 L57.269,219.358 L57.311,179.650 L91.575,159.833 ZM173.236,242.400 L196.389,229.009 L196.417,202.174 L173.293,188.733 L150.143,202.125 L150.115,228.959 L173.236,242.400 ZM131.974,240.839 L149.114,230.922 L149.136,211.056 L132.016,201.106 L125.768,204.720 L125.752,219.431 L114.864,225.730 L114.858,230.885 L131.974,240.839 ZM124.841,205.258 L114.879,211.020 L114.865,224.655 L124.826,218.893 L124.841,205.258 ZM91.491,238.175 L114.388,224.931 L114.403,210.743 L124.841,204.704 L124.867,180.260 L91.574,160.908 L58.237,180.189 L58.196,218.821 L91.491,238.175 ZM84.189,228.915 L85.983,229.958 L85.981,232.042 L84.184,233.080 L82.390,232.037 L82.392,229.954 L84.189,228.915 ZM84.185,232.856 L85.786,231.928 L85.788,230.070 L84.188,229.140 L82.586,230.067 L82.584,231.924 L84.185,232.856 ZM205.818,160.375 L207.600,161.412 L207.598,163.480 L205.813,164.513 L204.033,163.475 L204.035,161.408 L205.818,160.375 ZM222.900,224.868 L225.488,226.372 L225.485,229.376 L222.894,230.875 L220.304,229.370 L220.308,226.366 L222.900,224.868 ZM222.894,230.549 L225.205,229.212 L225.207,226.533 L222.900,225.192 L220.587,226.528 L220.585,229.207 L222.894,230.549 ZM291.094,236.219 L294.449,238.171 L294.445,242.065 L291.086,244.008 L287.731,242.058 L287.735,238.164 L291.094,236.219 ZM313.108,158.868 L315.790,160.427 L315.787,163.540 L313.101,165.092 L310.420,163.534 L310.423,160.421 L313.108,158.868 ZM313.101,164.756 L315.495,163.371 L315.499,160.595 L313.107,159.203 L310.713,160.589 L310.710,163.365 L313.101,164.756 ZM329.563,205.881 L333.715,208.296 L333.710,213.116 L329.552,215.522 L325.397,213.107 L325.403,208.286 L329.563,205.881 ZM329.553,215.391 L333.597,213.050 L333.602,208.361 L329.562,206.010 L325.515,208.353 L325.510,213.041 L329.553,215.391 ZM329.714,160.519 L329.718,157.156 L332.620,155.477 L335.519,157.162 L335.515,160.525 L332.613,162.205 L329.714,160.519 ZM335.440,157.207 L332.620,155.568 L329.796,157.201 L329.793,160.474 L332.613,162.113 L335.437,160.480 L335.440,157.207 ZM365.385,223.698 L370.440,226.635 L370.434,232.499 L365.373,235.425 L360.320,232.487 L360.326,226.625 L365.385,223.698 ZM365.373,234.791 L369.886,232.181 L369.892,226.953 L365.385,224.331 L360.873,226.942 L360.868,232.171 L365.373,234.791 ZM401.798,204.092 L411.243,209.583 L411.231,220.542 L401.775,226.011 L392.329,220.521 L392.341,209.563 L401.798,204.092 ZM401.776,224.825 L410.208,219.948 L410.219,210.175 L401.797,205.280 L393.363,210.157 L393.353,219.929 L401.776,224.825 ZM414.060,164.094 L416.126,165.295 L416.123,167.694 L414.054,168.890 L411.986,167.689 L411.989,165.291 L414.060,164.094 ZM414.054,168.825 L416.067,167.661 L416.070,165.328 L414.060,164.159 L412.045,165.324 L412.043,167.657 L414.054,168.825 ZM503.581,125.634 L508.595,128.549 L508.588,134.368 L503.568,137.273 L498.552,134.357 L498.559,128.538 L503.581,125.634 ZM520.425,152.817 L524.295,155.066 L524.290,159.555 L520.416,161.796 L516.546,159.547 L516.551,155.057 L520.425,152.817 ZM520.416,161.310 L523.871,159.312 L523.875,155.308 L520.425,153.304 L516.970,155.300 L516.966,159.304 L520.416,161.310 ZM640.844,130.833 L648.398,135.224 L648.389,143.987 L640.825,148.360 L633.272,143.971 L633.282,135.208 L640.844,130.833 ZM640.825,147.412 L647.571,143.512 L647.580,135.697 L640.842,131.781 L634.100,135.683 L634.091,143.497 L640.825,147.412 Z"/>
</svg>