<svg version="1.1" id="Capa_1" xmlns="http://www.w3.org/2000/svg"
                                        xmlns:xlink="http://www.w3.org/1999/xlink" x="0px" y="0px" viewBox="0 0 480 480"
                                        style="enable-background:new 0 0 480 480;" xml:space="preserve">
                                        <path id="XMLID_447_" d="M91.179,190.001c0,5.523-4.437,10-9.911,10h-1.982c-5.474,0-9.911-4.477-9.911-10s4.437-10,9.911-10h1.982
C86.742,180.001,91.179,184.478,91.179,190.001z M476.91,321.502c-4.582,12.53-13.726,22.509-25.746,28.1l-70.613,32.841
c-3.45,8.676-7.71,17.119-12.771,25.222C339.489,452.959,290.92,480,237.859,480c-53.062,0-101.63-27.041-129.921-72.335
c-18.624-29.818-26.384-64.226-22.981-98.036c-37.324-9.799-65.52-41.852-70.615-80.568C5.924,225.474,0,217.059,0,207.274
c0-11.516,8.203-21.134,19.023-23.218c11.174-31.712,38.055-55.052,70.174-61.952v-2.103c0-5.523,4.437-10,9.911-10
c5.474,0,9.911,4.477,9.911,10c17.642,0,34.456,4.736,49.266,13.794l24.645-51.994l-26.987-2.989
c-18.468-2.046-35.215-10.254-47.156-23.115C96.453,42.414,90.672,25.798,92.509,8.91c0.597-5.489,5.489-9.448,10.933-8.849
l102.885,11.396c8.573-7.153,19.564-11.456,31.532-11.456s22.958,4.303,31.532,11.456L372.276,0.061
c5.44-0.605,10.336,3.36,10.933,8.849c1.837,16.888-3.944,33.504-16.278,46.787c-11.941,12.86-28.688,21.069-47.156,23.115
l-26.987,2.989l62.144,131.106l0.04-0.085c9.392-19.917,33.091-28.411,52.83-18.934c24.673,11.846,35.196,41.737,23.456,66.632
l-0.177,0.378c17.742-3.855,36.434,5.058,44.341,22.365C480.964,295.392,481.492,308.973,476.91,321.502z M283.291,30.038
c2.65,6.118,4.122,12.871,4.122,19.963c0,4.296-0.54,8.466-1.554,12.447l31.753-3.518c13.768-1.525,26.146-7.53,34.854-16.908
c5.753-6.196,9.403-13.364,10.709-20.834L283.291,30.038z M208.127,50.001c0,13.325,8.656,24.649,20.591,28.55
c2.838,0.925,5.842,1.427,8.926,1.449c0.012,0,0.023,0,0.036,0c0.014,0,0.028,0,0.04,0c0.018,0,0.036,0,0.053,0
c0.015,0,0.03,0,0.044,0c0.028,0,0.057,0,0.085,0c0.014,0,0.03,0,0.044,0c0.017-0.001,0.035,0,0.053,0c0.013,0,0.027,0,0.04,0
c0.013,0,0.025,0,0.036,0c3.087-0.022,6.094-0.525,8.935-1.453c11.932-3.902,20.581-15.224,20.581-28.546
c0-16.542-13.338-30-29.732-30S208.127,33.459,208.127,50.001z M189.86,62.448c-1.015-3.981-1.554-8.151-1.554-12.447
c0-7.093,1.472-13.846,4.122-19.963l-79.885-8.849c1.307,7.47,4.956,14.638,10.709,20.834c8.708,9.378,21.086,15.383,34.854,16.908
L189.86,62.448z M99.319,258.195l50.359-106.243c-12.12-7.842-26.031-11.952-40.659-11.952v10c0,5.523-4.437,10-9.911,10
c-5.474,0-9.911-4.477-9.911-10v-7.328c-25.415,6.983-46.061,27.089-53.207,53.59c-1.174,4.354-5.092,7.374-9.563,7.374h-3.001
c-1.987,0-3.604,1.631-3.604,3.637c0,2.005,1.617,3.636,3.604,3.636h0.118c5.274,0,9.624,4.167,9.897,9.482
c1.684,32.751,24.178,60.603,54.819,69.417C90.775,279.047,94.459,268.448,99.319,258.195z M358.517,266.824l-12.468-26.304
c-0.022-0.045-0.043-0.09-0.064-0.135L272.632,85.631c-5.616,5.58-12.494,9.747-20.054,12.119c-1.57,0.494-3.176,0.911-4.808,1.247
v101.004c0,5.523-4.437,10-9.911,10s-9.911-4.477-9.911-10V98.997c-1.631-0.335-3.235-0.752-4.804-1.246
c-7.563-2.372-14.44-6.539-20.058-12.12l-31.855,67.205c-0.055,0.122-0.112,0.244-0.172,0.364l-53.858,113.624
c-19.939,42.065-17.132,90.729,7.507,130.177C149.347,436.449,191.646,460,237.859,460s88.512-23.551,113.152-62.999
c5.056-8.095,9.192-16.575,12.401-25.31c0.023-0.065,0.047-0.13,0.072-0.195C375.837,337.717,374.334,300.193,358.517,266.824z
 M389.814,302.089l11.869-25.285c0.218-0.612,0.495-1.202,0.827-1.762l10.843-23.099c7.051-14.954,0.738-32.889-14.066-39.996
c-9.87-4.738-21.72-0.491-26.416,9.467l-6.935,14.707l10.463,22.074C383.099,272.331,387.562,287.11,389.814,302.089z
 M457.422,291.636c-2.216-4.852-6.172-8.542-11.139-10.392c-4.966-1.849-10.351-1.636-15.159,0.6l-12.63,5.875l-27.841,59.312
c-0.257,0.547-0.557,1.06-0.893,1.537c-0.423,2.764-0.923,5.525-1.496,8.267l54.605-25.395c7.212-3.354,12.699-9.342,15.448-16.86
C461.063,307.061,460.746,298.913,457.422,291.636z M299.895,376.538c-15.998,17.792-38.029,27.591-62.036,27.591
c-42.748,0-78.666-32.359-83.548-75.27c-0.624-5.487-5.539-9.423-10.976-8.794c-5.438,0.63-9.34,5.588-8.716,11.075
c6.032,53.012,50.416,92.988,103.241,92.988c29.669,0,56.914-12.129,76.716-34.153c3.678-4.09,3.373-10.415-0.681-14.125
C309.841,372.14,303.572,372.448,299.895,376.538z M111.001,180.001h-1.982c-5.474,0-9.911,4.477-9.911,10s4.437,10,9.911,10h1.982
c5.474,0,9.911-4.477,9.911-10S116.475,180.001,111.001,180.001z" />
                                    </svg>